<?xml version="1.0" encoding="utf-8"?>
<!-- Generator: Adobe Illustrator 15.0.2, SVG Export Plug-In . SVG Version: 6.00 Build 0)  -->
<!DOCTYPE svg PUBLIC "-//W3C//DTD SVG 1.1//EN" "http://www.w3.org/Graphics/SVG/1.1/DTD/svg11.dtd">
<svg version="1.1" id="Layer_1" xmlns="http://www.w3.org/2000/svg" xmlns:xlink="http://www.w3.org/1999/xlink" x="0px" y="0px"
	 width="170.377px" height="216.737px" viewBox="0 0 170.377 216.737" enable-background="new 0 0 170.377 216.737"
	 xml:space="preserve">
<g>
	<path fill="#0C2D4D" stroke="#0C2D4D" stroke-width="10" stroke-miterlimit="10" d="M129.527,106.343V5h35.85v101.343
		c0,36.485-7.006,63.128-21.022,79.921c-14.018,16.807-35.22,25.295-63.611,25.473h-1.074c-17.794,0-33.023-3.686-45.694-11.055
		c-12.665-7.359-22.147-18.771-28.433-34.227C5.182,165.02,5,163.944,5,163.221c0-1.977,0.718-3.639,2.16-4.984
		c1.435-1.352,3.141-2.025,5.122-2.025H29.8c1.617,0,3.141,0.494,4.58,1.482s2.334,2.383,2.695,4.184
		c1.438,5.568,3.279,10.916,5.531,16.031c2.242,5.129,5.074,9.709,8.486,13.752c3.413,4.045,7.501,7.271,12.267,9.703
		c4.758,2.422,10.464,3.639,17.113,3.639c16.716,0,29.02-7.82,36.929-23.455c7.903-15.627,11.858-40.428,11.858-74.395
		L129.527,106.343z"/>
</g>
</svg>
