<?xml version="1.0" encoding="utf-8"?>
<!-- Generator: Adobe Illustrator 15.1.0, SVG Export Plug-In . SVG Version: 6.00 Build 0)  -->
<!DOCTYPE svg PUBLIC "-//W3C//DTD SVG 1.1//EN" "http://www.w3.org/Graphics/SVG/1.1/DTD/svg11.dtd">
<svg version="1.1" id="Layer_1" xmlns="http://www.w3.org/2000/svg" xmlns:xlink="http://www.w3.org/1999/xlink" x="0px" y="0px"
	 width="53.386px" height="51.028px" viewBox="0 0 53.386 51.028" enable-background="new 0 0 53.386 51.028" xml:space="preserve">
<path fill="#154267" d="M6.398,11.897c3.991,0,6.474-2.644,6.474-5.948C12.799,2.57,10.39,0,6.474,0C2.56,0,0,2.57,0,5.949
	c0,3.304,2.483,5.948,6.323,5.948H6.398 M0.677,51.028h11.442v-34.43H0.677V51.028z"/>
<path fill="#154267" d="M18.452,51.028h11.444V31.801c0-1.029,0.075-2.058,0.377-2.793c0.827-2.057,2.71-4.186,5.872-4.186
	c4.141,0,5.797,3.157,5.797,7.786v18.419h11.443V31.286c0-10.575-5.646-15.496-13.176-15.496c-6.174,0-8.884,3.451-10.39,5.801
	h0.077v-4.993H18.453C18.603,19.829,18.453,51.028,18.452,51.028L18.452,51.028"/>
</svg>
