<?xml version="1.0" encoding="utf-8"?>
<!-- Generator: Adobe Illustrator 15.1.0, SVG Export Plug-In . SVG Version: 6.00 Build 0)  -->
<!DOCTYPE svg PUBLIC "-//W3C//DTD SVG 1.1//EN" "http://www.w3.org/Graphics/SVG/1.1/DTD/svg11.dtd">
<svg version="1.1" id="Layer_1" xmlns="http://www.w3.org/2000/svg" xmlns:xlink="http://www.w3.org/1999/xlink" x="0px" y="0px"
	 width="42.844px" height="57.226px" viewBox="0 0 42.844 57.226" enable-background="new 0 0 42.844 57.226" xml:space="preserve">
<g>
	<defs>
		<rect id="SVGID_1_" x="0.06" y="-8.707" width="391.29" height="72.559"/>
	</defs>
	<clipPath id="SVGID_2_">
		<use xlink:href="#SVGID_1_"  overflow="visible"/>
	</clipPath>
	<path clip-path="url(#SVGID_2_)" fill="#47C8F5" d="M244.559,35.908c-0.057,0.01-0.116,0.006-0.174,0.016l0.301-0.049
		C244.639,35.882,244.605,35.901,244.559,35.908"/>
	<path clip-path="url(#SVGID_2_)" fill="#144367" d="M42.844,50.073c0,1.964-0.704,3.647-2.113,5.049
		c-1.409,1.403-3.097,2.104-5.069,2.104H21.464c-5.915,0-10.97-2.09-15.168-6.274C2.097,46.767,0,41.73,0,35.834V7.159
		c0-2.021,0.699-3.718,2.097-5.095C3.495,0.689,5.203,0,7.219,0c1.957,0,3.638,0.702,5.034,2.105
		c1.401,1.402,2.102,3.083,2.102,5.049v10.383h20.214c1.835,0,3.408,0.65,4.719,1.952c1.311,1.3,1.964,2.859,1.964,4.681
		c0,1.818-0.653,3.381-1.959,4.682c-1.306,1.299-2.875,1.95-4.702,1.95H14.355v5.025c0,1.971,0.688,3.644,2.071,5.025
		c1.381,1.377,3.058,2.066,5.031,2.066h14.202c1.971,0,3.663,0.703,5.072,2.105C42.14,46.428,42.844,48.11,42.844,50.073"/>
</g>
</svg>
